<svg xmlns="http://www.w3.org/2000/svg" width="554" height="324" viewBox="0 0 554 324" version="1.1">
	<path d="M 284.796 6.188 C 264.162 29.949, 256.087 55.382, 261.928 78.220 C 263.576 84.662, 271.224 102, 272.419 102 C 272.636 102, 271.351 98.513, 269.562 94.250 C 264.219 81.519, 262.639 73.308, 263.286 61.629 C 263.900 50.541, 265.999 42.994, 271.643 31.574 C 275.315 24.144, 284.597 10.666, 288.690 6.822 L 291.162 4.500 295.100 9 C 307.383 23.036, 314.595 37.112, 319.436 56.500 C 319.711 57.600, 319.721 55.916, 319.460 52.757 C 318.297 38.721, 305.982 15.009, 293.714 3.188 L 290.277 -0.123 284.796 6.188 M 225.046 20.261 C 223.538 25.627, 222.487 49.579, 223.537 54.664 C 224.228 58.013, 224.487 57.072, 225.573 47.256 C 226.257 41.072, 227.385 32.830, 228.080 28.941 C 229.591 20.486, 228.283 20.508, 247.500 28.617 C 254.650 31.635, 261.175 34.386, 262 34.732 C 264.804 35.906, 257.159 29.950, 251.449 26.512 C 245.631 23.008, 233.577 17.736, 228.869 16.636 C 226.460 16.073, 226.137 16.379, 225.046 20.261 M 345.672 19.009 C 335.885 22.642, 326.701 27.749, 321.500 32.449 L 317.500 36.064 325.500 32.148 C 337.279 26.381, 351.169 21.656, 352.068 23.109 C 353.049 24.697, 355.983 43.812, 356.070 49.187 C 356.202 57.260, 357.680 58.106, 358.508 50.581 C 359.747 39.319, 357.143 17.129, 354.495 16.383 C 353.948 16.229, 349.977 17.411, 345.672 19.009 M 196 60.021 C 184.622 61.607, 180 63.023, 180 64.925 C 180 67.816, 184.499 80.066, 188.475 88 C 193.777 98.580, 199.793 106.695, 207.895 114.197 C 220.800 126.145, 235.524 131.365, 256.500 131.432 C 268.622 131.470, 281.523 129.866, 285 127.888 C 285.877 127.389, 285.045 127.339, 283 127.767 C 281.075 128.170, 271.850 128.490, 262.500 128.477 C 243.282 128.452, 237.763 127.376, 225 121.168 C 213.040 115.350, 200.458 101.743, 192.513 86.035 C 189.688 80.451, 185 68.636, 185 67.103 C 185 65.852, 204.678 63, 213.306 63 C 228.157 63, 242.983 66.768, 253.485 73.212 C 256.226 74.894, 257.838 75.509, 257.066 74.580 C 254.250 71.187, 242.280 65.043, 233.630 62.551 C 223.541 59.644, 206.787 58.518, 196 60.021 M 359.500 59.985 C 350.029 61.348, 337.890 65.625, 331.172 69.967 C 327.777 72.161, 325 74.139, 325 74.363 C 325 74.586, 327.883 73.239, 331.406 71.368 C 345.271 64.005, 364.862 61.473, 384.986 64.443 C 391.303 65.375, 396.596 66.263, 396.749 66.415 C 396.901 66.568, 395.858 69.799, 394.430 73.596 C 385.749 96.686, 370.770 114.894, 354.419 122.231 C 342.476 127.591, 337.066 128.500, 317.100 128.500 C 299.701 128.500, 298.994 128.573, 304.100 129.840 C 312.627 131.956, 337.086 131.886, 345 129.723 C 365.847 124.025, 381.726 110.457, 392.708 88.957 C 396.924 80.703, 402.778 64.445, 401.864 63.530 C 399.186 60.853, 370.280 58.434, 359.500 59.985 M 318.640 72.985 C 316.649 81.801, 312.085 93.312, 307.437 101.243 C 302.772 109.203, 293.082 122.031, 291.185 122.759 C 290.275 123.108, 288.702 122.187, 287.188 120.417 C 280.974 113.156, 275.815 107.630, 276.528 109 C 278.271 112.347, 285.952 122.656, 288.392 124.924 L 291 127.349 293.644 124.924 C 297.499 121.389, 307.459 107.798, 311.422 100.666 C 313.306 97.275, 315.787 91.689, 316.934 88.253 C 319.003 82.056, 321.546 67.213, 320.686 66.353 C 320.440 66.107, 319.519 69.091, 318.640 72.985 M 182 93.232 C 172.694 97.313, 167 100.445, 167 101.480 C 167 103.546, 176.467 116.285, 182.727 122.643 C 205.581 145.853, 230.405 152.305, 259.458 142.583 C 268.884 139.429, 281 133.725, 281 132.441 C 281 132.215, 278.637 132.993, 275.750 134.170 C 238.617 149.312, 210.781 144.328, 183.672 117.684 C 178.532 112.633, 173.328 107.044, 172.106 105.265 L 169.885 102.029 174.359 99.265 C 176.820 97.744, 180.559 95.507, 182.667 94.294 C 186.681 91.984, 186.285 91.352, 182 93.232 M 402.788 96.681 C 407.660 99.433, 410.958 101.919, 410.788 102.713 C 410.386 104.600, 397.621 118.568, 391 124.367 C 375.836 137.649, 357.165 144.183, 339.002 142.561 C 329.397 141.704, 316.708 138.591, 307.734 134.890 C 303.857 133.291, 300.486 132.181, 300.245 132.422 C 299.366 133.301, 318.712 141.969, 326.500 144.187 C 332.902 146.009, 336.997 146.464, 347 146.462 C 358.014 146.461, 360.368 146.146, 366.806 143.811 C 378.599 139.534, 387.582 133.569, 398.033 123.073 C 406.639 114.432, 415 103.664, 415 101.223 C 415 100.234, 397.777 92, 395.707 92 C 395.043 92, 398.230 94.107, 402.788 96.681 M 423.749 147.725 C 419.335 152.602, 406.887 185.322, 395.967 220.747 C 389.480 241.793, 388.736 243.594, 384.443 248.618 C 377.822 256.368, 362.742 269.980, 356.694 273.666 C 348.990 278.361, 347.490 278.581, 344.383 275.474 C 341.941 273.032, 341.781 272.369, 342.341 267.015 C 342.965 261.046, 345.740 252.853, 348.634 248.436 C 350.122 246.166, 350.427 246.077, 351.965 247.468 C 357.118 252.131, 368 245.061, 368 237.050 C 368 233.987, 364.464 231, 360.838 231 C 350.537 231, 337.475 248.212, 336.257 263.392 C 335.411 273.931, 339.991 280, 348.790 280 C 354.252 280, 362.202 274.535, 376.231 261.135 C 382.355 255.286, 387.024 251.400, 386.605 252.500 C 386.186 253.600, 383.904 262.150, 381.534 271.500 C 376.910 289.740, 374 305.043, 374 311.120 C 374 316.372, 377.278 319.959, 382.747 320.693 C 386.703 321.223, 387.233 320.999, 390.570 317.381 C 395.173 312.391, 403.355 299.235, 413.080 281.187 C 417.322 273.315, 421.058 266.609, 421.382 266.284 C 421.707 265.960, 422.911 266.888, 424.059 268.347 C 425.206 269.806, 426.723 271, 427.429 271 C 430.940 271, 443.743 258.132, 460.782 237.478 L 464.064 233.500 462.636 237 C 461.851 238.925, 459.312 244.550, 456.996 249.500 C 446.623 271.661, 443.102 283.915, 445.475 289.595 C 446.711 292.553, 451.272 296, 453.950 296 C 455.510 296, 455.220 293.428, 453.500 292 C 449.116 288.362, 454.962 269.316, 471.399 233.695 C 473.379 229.402, 475 225.450, 475 224.912 C 475 224.375, 473.988 223.550, 472.750 223.079 C 469.820 221.963, 469.114 222.616, 456.302 238.304 C 439.314 259.105, 429.103 268.403, 426.996 264.993 C 425.473 262.530, 428.881 253.670, 434.779 244.758 C 437.201 241.098, 437.224 240.905, 435.487 238.986 C 434.499 237.894, 433.117 237, 432.418 237 C 430.550 237, 427 241.916, 427 244.502 C 427 249.392, 418.774 265.750, 402.753 292.720 C 393.255 308.710, 385.255 318.893, 383.192 317.619 C 381.338 316.473, 381.745 303.770, 384.047 290.925 C 389.659 259.609, 404.649 207.245, 417.127 175.365 C 423.818 158.269, 427.676 152, 431.506 152 C 434.436 152, 434.681 150.924, 432.250 148.733 C 429.315 146.088, 425.626 145.651, 423.749 147.725 M 277.392 165.159 C 269.336 177.884, 261 199.879, 254.523 225.499 L 250.226 242.497 242.892 246.829 C 220.651 259.965, 211.016 273.652, 214.050 287.799 C 215.394 294.065, 221.056 300.866, 227.417 303.856 C 236.423 308.089, 252.120 308.185, 263.086 304.073 C 290.156 293.924, 322.719 256.475, 341.176 214.266 C 347.791 199.139, 350.418 188.527, 349.692 179.869 C 348.231 162.434, 338.077 157.195, 321.590 165.369 C 305.231 173.479, 285.712 195.217, 266.004 227.274 C 262.431 233.086, 259.372 237.705, 259.206 237.540 C 258.725 237.059, 263.791 217.511, 267.517 205.473 C 274.413 183.191, 280.805 170.815, 286.687 168.357 C 288.509 167.596, 290 166.581, 290 166.102 C 290 164.914, 285.772 162.232, 282.674 161.454 C 280.486 160.905, 279.764 161.411, 277.392 165.159 M 108.898 166.280 C 102.291 170.715, 83.471 196.639, 59.439 234.406 C 55.623 240.404, 52.387 244.679, 52.248 243.906 C 52.110 243.133, 53.062 229.457, 54.365 213.516 C 55.978 193.773, 56.431 183.666, 55.786 181.817 C 55.149 179.988, 53.699 178.726, 51.344 177.948 C 48.193 176.909, 47.598 177.027, 45.321 179.147 C 40.315 183.808, 30.923 204.581, 13.511 249.500 C 7.970 263.794, 2.952 275.252, 1.792 276.256 C 0.201 277.633, 0.015 278.313, 0.928 279.414 C 2.663 281.504, 9.101 284.318, 9.924 283.346 C 10.318 282.881, 11.153 279.339, 11.779 275.475 C 13.257 266.346, 18.941 246.671, 23.836 233.736 C 30.319 216.604, 42.979 189.437, 46.143 185.868 L 49.128 182.500 48.570 194 C 48.264 200.325, 46.885 215.345, 45.506 227.378 C 42.340 255.016, 42.338 256.429, 45.455 259.545 C 46.805 260.895, 48.566 262, 49.368 262 C 50.202 262, 53.232 257.455, 56.442 251.390 C 76.572 213.357, 108.086 168, 114.382 168 C 116.010 168, 116.148 168.558, 115.557 172.750 C 114.397 180.982, 110.167 195.481, 99.003 229.500 C 79.160 289.962, 74.597 307.678, 77.053 314.722 C 77.964 317.335, 81.422 320, 83.902 320 C 84.346 320, 84.977 315.613, 85.304 310.250 C 86.054 297.945, 90.660 280.434, 103.519 241 C 121.531 185.764, 123.940 175.652, 120.616 169.224 C 117.729 163.641, 114.165 162.745, 108.898 166.280 M 326.777 168.940 C 316.196 173.076, 302.170 185.690, 290.235 201.802 C 283.789 210.505, 268.784 234.117, 269.344 234.677 C 269.546 234.879, 272.588 234.366, 276.105 233.537 C 283.564 231.779, 293.898 231.566, 299.277 233.060 C 303.979 234.366, 310 239.526, 310 242.250 C 310 244.154, 309.837 244.117, 307.598 241.700 C 302.054 235.719, 292.991 234.710, 278.500 238.462 C 264.741 242.024, 264.772 242, 259.636 252.918 C 256.257 260.102, 255 264.002, 255 267.299 C 255 271.138, 254.527 272.220, 251.874 274.452 C 246.069 279.337, 245.188 276.822, 247.340 261.500 C 248.112 256, 248.590 251.326, 248.402 251.113 C 247.607 250.215, 234.331 259.829, 228.990 265.170 C 221.700 272.460, 219 277.865, 219 285.168 C 219 291.982, 221.754 296.615, 227.513 299.491 C 232.882 302.172, 247.121 302.234, 255 299.611 C 283.386 290.161, 311.811 259.713, 332.589 216.500 C 340.751 199.524, 344.108 189.379, 344.744 179.769 C 345.442 169.201, 344.043 166.981, 336.727 167.047 C 333.852 167.073, 329.374 167.924, 326.777 168.940 M 185.651 227.533 C 185.309 230.026, 183.910 235.928, 182.541 240.647 C 179.651 250.617, 177.911 253.005, 160.965 270.250 C 142.914 288.619, 141.487 286.801, 150.500 256.910 C 153.525 246.878, 156 238.139, 156 237.490 C 156 236.053, 152.763 233, 151.239 233 C 150.632 233, 146.637 237.162, 142.361 242.250 C 126.972 260.560, 118.847 268.642, 116.986 267.491 C 115.764 266.736, 117.873 258.912, 120.516 254.391 C 124.298 247.924, 130.410 240.635, 133.373 239.059 C 135.787 237.775, 136.406 237.809, 139.041 239.365 C 141.515 240.827, 142 240.873, 142 239.645 C 142 237.593, 136.633 233.298, 133.097 232.521 C 131.236 232.113, 129.048 232.441, 127.173 233.410 C 121.729 236.226, 112.471 252.824, 110.617 263.095 C 110.112 265.891, 110.431 267.279, 112.056 269.345 C 116.418 274.889, 119.865 272.702, 135.675 254.361 C 142.045 246.970, 147.461 241.128, 147.711 241.378 C 147.961 241.628, 146.156 248.057, 143.699 255.666 C 137.933 273.526, 137.481 276.617, 140.022 280.796 C 142.371 284.658, 145.912 286.490, 149.358 285.625 C 151.519 285.083, 159.867 276.684, 174.332 260.500 L 177.907 256.500 175.583 263.888 C 174.305 267.951, 173.468 272.074, 173.723 273.050 C 174.277 275.169, 177.691 279, 179.025 279 C 179.545 279, 181.281 276.413, 182.883 273.250 C 189.727 259.735, 202.475 243, 205.926 243 C 206.397 243, 207.514 244.828, 208.408 247.062 C 210.484 252.251, 214.233 256, 217.345 256 C 221.545 256, 240.668 240.149, 238.262 238.662 C 237.756 238.349, 235.690 239.455, 233.670 241.120 C 228.129 245.688, 218.889 251, 216.485 251 C 214.794 251, 213.849 249.705, 211.926 244.750 C 210.035 239.878, 208.992 238.428, 207.195 238.173 C 203.641 237.669, 198.823 242.025, 190.272 253.474 C 185.998 259.197, 182.376 263.534, 182.224 263.111 C 182.072 262.688, 184.434 255.102, 187.474 246.255 C 190.513 237.407, 193 229.534, 193 228.758 C 193 227.152, 188.905 223, 187.321 223 C 186.744 223, 185.992 225.040, 185.651 227.533 M 527.623 227.180 C 526.846 229.006, 525.759 231.625, 525.206 233 C 523.763 236.590, 505.889 256.297, 504.963 255.319 C 504.536 254.869, 503.674 249.550, 503.047 243.500 C 501.772 231.190, 501.045 230, 494.809 230 C 491.027 230, 490.191 230.727, 491.880 232.550 C 492.365 233.073, 493.290 237.828, 493.936 243.118 C 494.582 248.408, 495.751 255.158, 496.533 258.118 L 497.954 263.500 489.592 272 C 476.629 285.176, 473.614 290.225, 475.607 295.418 C 475.941 296.288, 477.066 297, 478.107 297 C 479.588 297, 480 296.270, 480 293.650 C 480 291.644, 481.103 288.679, 482.750 286.255 C 485.601 282.061, 498.950 267.548, 499.398 268.155 C 499.538 268.345, 500.648 270.156, 501.865 272.180 C 504.800 277.063, 510.145 281.653, 513.842 282.465 C 519.611 283.732, 524.900 281.311, 531.986 274.159 C 538.845 267.236, 554.324 245.333, 553.407 243.849 C 552.022 241.609, 549.565 243.690, 544.667 251.250 C 534.037 267.656, 523.979 278.187, 517.601 279.588 C 515.088 280.140, 514.166 279.751, 511.855 277.164 C 509.316 274.322, 505.998 265.767, 506.001 262.068 C 506.002 261.206, 510.096 256, 515.100 250.500 C 531.568 232.399, 535.876 225.164, 530.767 224.190 C 529.596 223.967, 528.577 224.936, 527.623 227.180 M 360.500 235.417 C 356.335 237.277, 351.599 242.512, 352.339 244.440 C 353.984 248.729, 364 241.995, 364 236.600 C 364 235.170, 363.887 234.018, 363.750 234.039 C 363.613 234.061, 362.150 234.681, 360.500 235.417" stroke="none" fill="#b76e79" fill-rule="evenodd"/>
</svg>