<svg xmlns="http://www.w3.org/2000/svg" width="1024" height="365" viewBox="0 0 1024 365" version="1.1">
	<path d="M 770.519 26.160 C 760.976 37.502, 736.525 103.036, 714.138 177.276 L 708.174 197.053 698.193 207.792 C 671.487 236.529, 647.857 255.585, 637.482 256.755 C 621.965 258.504, 620.876 235.265, 635.186 207.760 L 639.227 199.992 642.632 202.982 C 646.955 206.777, 650.160 207.568, 655.153 206.072 C 665.636 202.931, 674.195 187.839, 669.970 179.945 C 667.291 174.938, 656.082 173.418, 648.207 176.992 C 645.845 178.064, 641.179 181.542, 637.836 184.720 C 627.237 194.801, 619.760 207.797, 615.919 222.817 C 610.378 244.481, 617.626 259.290, 634.892 261.580 C 639.559 262.199, 640.791 261.910, 647.287 258.677 C 657.031 253.826, 669.287 243.780, 688.903 224.567 C 697.925 215.730, 705.003 209.350, 704.632 210.388 C 703.820 212.660, 695.986 242.094, 693.025 254 C 685.438 284.504, 680.754 313.222, 682.130 320.801 C 683.518 328.445, 691.170 333.977, 700.382 333.994 C 710.007 334.013, 721.804 317.454, 753.286 259.741 L 766.792 234.982 768.819 238.417 C 771.978 243.773, 775.154 245.434, 779.494 244.002 C 786.420 241.716, 813.384 213.463, 836.989 183.757 C 839.936 180.048, 842.499 177.165, 842.684 177.350 C 842.868 177.535, 839.390 185.269, 834.953 194.537 C 810.852 244.881, 803.435 268.883, 808.855 278.991 C 811.635 284.174, 817.180 288.240, 821.663 288.381 C 826.632 288.538, 827.052 286.397, 822.904 282.057 C 819.751 278.758, 819.737 278.696, 820.303 270.620 C 821.349 255.703, 833.509 223.366, 855.209 177.804 C 858.534 170.821, 860.996 164.432, 860.679 163.606 C 860.362 162.780, 858.668 161.363, 856.915 160.456 C 852.357 158.099, 850.751 159.266, 839.299 173.256 C 812.922 205.476, 807.901 211.285, 797.597 221.502 C 786.569 232.437, 779.842 236.921, 776.431 235.612 C 775.069 235.089, 774.838 233.967, 775.198 229.629 C 775.714 223.409, 780.398 212.945, 787.911 201.233 C 790.710 196.870, 793 192.326, 793 191.135 C 793 188.882, 787.901 185.011, 784.924 185.004 C 781.517 184.996, 776 193.669, 776 199.033 C 776 200.755, 774.650 205.241, 773 209 C 771.350 212.759, 770 216.216, 770 216.682 C 770 217.148, 769.172 219.098, 768.159 221.015 C 732.224 289.044, 707.180 328, 699.382 328 C 696.783 328, 696.393 326.951, 695.662 318 C 693 285.402, 726.810 155.873, 760.656 69 C 765.242 57.228, 773.749 40.480, 776.802 37.212 C 779.222 34.621, 780.584 34, 783.842 34 C 786.064 34, 788.115 33.623, 788.399 33.163 C 789.852 30.812, 782.506 25.245, 775.837 23.645 C 773.663 23.123, 772.685 23.585, 770.519 26.160 M 514.284 51.250 C 509.903 56.951, 497.455 81.091, 491.722 95 C 487.474 105.308, 480.370 125.747, 476.082 140 C 472.560 151.709, 464.448 184.197, 463.421 190.708 C 462.766 194.866, 462.625 194.989, 451.629 201.057 C 425.730 215.347, 408.264 231.523, 400.244 248.642 C 397.771 253.922, 397.500 255.591, 397.500 265.553 C 397.500 276.322, 397.597 276.803, 401.272 284.238 C 408.938 299.745, 424.126 308.085, 447.581 309.667 C 468.766 311.096, 489.502 304.483, 512.825 288.861 C 549.972 263.980, 591.277 212.230, 617.481 157.743 C 634.665 122.011, 640.671 99.844, 638.199 81.278 C 636.653 69.670, 634.693 64.169, 630.252 58.981 C 621.398 48.637, 606.870 48.322, 587.399 58.053 C 566.905 68.294, 539.222 96.017, 513.590 131.968 C 504.227 145.100, 487.670 170.856, 480.572 183.329 C 479.060 185.984, 477.678 188.009, 477.500 187.829 C 476.958 187.277, 481.872 166.421, 486.531 149.500 C 500.700 98.043, 515.571 66.137, 526.841 63.014 C 532.470 61.455, 533.397 60.610, 532.112 58.210 C 530.943 56.025, 519.825 50, 516.963 50 C 516.018 50, 514.813 50.563, 514.284 51.250 M 213 58.130 C 199.688 66.204, 174.772 100.064, 125.529 177 C 117.960 188.825, 111.312 198.950, 110.756 199.500 C 110.073 200.174, 109.940 197.892, 110.346 192.500 C 112.131 168.816, 116.142 119.116, 117.005 110 C 118.600 93.136, 118.351 87.716, 115.832 84.514 C 111.137 78.545, 102.816 77.338, 98.198 81.956 C 89.634 90.520, 72.011 128.915, 47.230 193 C 26.715 246.051, 21.969 257, 19.483 257 C 17.128 257, 17.743 258.606, 21.218 261.530 C 26.208 265.729, 32.355 268.379, 35.356 267.626 C 37.779 267.017, 37.918 266.679, 37.371 262.688 C 36.133 253.657, 51.816 197.810, 63.572 169.387 C 70.920 151.621, 86.351 117.250, 91.579 107 C 97.175 96.031, 102.512 88.581, 104.080 89.550 C 104.586 89.862, 104.998 93.579, 104.996 97.809 C 104.991 105.617, 101.817 143.306, 100.010 157 C 97.741 174.197, 94 209.634, 94.004 213.901 C 94.008 219.421, 96.652 224.207, 101.241 227.005 C 106.581 230.261, 107.492 229.734, 112.046 220.750 C 114.346 216.213, 116.558 212.050, 116.963 211.500 C 117.367 210.950, 119.508 207.125, 121.720 203 C 127.802 191.659, 145.030 162.618, 157.246 143.113 C 190.669 89.747, 214.660 59.737, 221.732 62.450 C 223.020 62.945, 223.185 64.355, 222.706 70.773 C 221.701 84.249, 214.527 109.179, 194.008 170.500 C 158.675 276.089, 148.840 315.476, 155.332 325.384 C 157.574 328.805, 162.731 331.991, 166.036 331.996 L 168.571 332 168.582 318.750 C 168.591 307.868, 169.086 303.355, 171.356 293.500 C 177.360 267.424, 184.087 244.843, 203.974 184 C 228.590 108.686, 232.803 93.941, 233.690 80 C 234.355 69.548, 233.036 64.241, 228.605 59.542 C 225.765 56.531, 224.607 56.001, 220.882 56.004 C 218.187 56.006, 215.153 56.825, 213 58.130 M 605 61.571 C 577.176 68.852, 545.297 100.286, 511.769 153.500 C 501.503 169.793, 494.493 182, 495.401 182 C 495.717 182, 500.368 180.827, 505.737 179.393 C 518.795 175.907, 537.575 175.004, 546.967 177.412 C 558.231 180.299, 568 188.460, 568 194.982 C 568 197.374, 567.807 197.288, 564.112 193.245 C 559.054 187.712, 550.382 183.715, 542.277 183.181 C 531.790 182.489, 510.074 186.885, 493.691 193.014 C 487.260 195.421, 487.573 194.957, 476.148 218.965 C 471.164 229.437, 470.666 231.118, 470.398 238.364 C 470.124 245.748, 469.883 246.526, 466.910 249.592 C 463.148 253.475, 458.278 256.044, 456.197 255.245 C 454.968 254.774, 454.821 252.967, 455.331 244.589 C 455.878 235.606, 458.183 217.337, 459.537 211.250 C 459.813 210.012, 459.633 209, 459.138 209 C 456.578 209, 432.899 226.226, 425.654 233.359 C 411.343 247.448, 406 257.516, 406 270.393 C 406 276.830, 406.435 278.662, 409.250 284.073 C 413.478 292.201, 419.160 296.232, 429.695 298.575 C 439.187 300.687, 454.445 300.050, 467 297.018 C 478.618 294.212, 499.020 284.022, 511.500 274.792 C 530.383 260.827, 552.164 238.050, 570.111 213.500 C 598.113 175.197, 623.495 123.051, 629.555 91.374 C 633.624 70.112, 629.240 59.911, 616.102 60.066 C 613.021 60.102, 608.025 60.779, 605 61.571 M 348.113 167.143 C 347.465 171.072, 344.857 181.609, 342.319 190.559 L 337.704 206.831 329.200 216.666 C 306.915 242.435, 286.287 262.659, 280.080 264.822 C 271.599 267.779, 272.719 259.488, 287.013 213.500 C 296.029 184.491, 295.977 184.823, 292.183 181.029 C 286.462 175.308, 284.913 176.262, 270.303 194.500 C 249.948 219.911, 231.275 239, 226.772 239 C 221.263 239, 227.248 220.946, 237.547 206.500 C 239.900 203.200, 244.001 198.290, 246.662 195.589 C 255.222 186.899, 259.891 185.196, 264.727 189 C 270.967 193.908, 272 189.040, 265.890 183.519 C 257.866 176.270, 248.317 174.783, 241.684 179.750 C 230.815 187.889, 214 221.389, 214 234.904 C 214 239.274, 217.232 244.712, 221.130 246.900 C 223.478 248.217, 224.118 248.143, 228.108 246.094 C 234.242 242.944, 241.541 235.590, 261.456 212.494 C 277.174 194.266, 282 189.020, 282 190.162 C 282 190.386, 279.041 199.329, 275.425 210.035 C 266.769 235.663, 264.006 246.201, 264.003 253.600 C 264 258.823, 264.441 260.309, 267.069 263.937 C 270.684 268.927, 277.722 272.535, 281.839 271.509 C 287.977 269.978, 296.208 261.985, 320.468 234 C 335.522 216.635, 334.283 217.750, 332.682 223.012 C 331.931 225.480, 330.039 231.403, 328.477 236.174 C 325.929 243.957, 325.762 245.261, 326.845 248.878 C 329.338 257.197, 336.883 262.275, 338.540 256.750 C 340.787 249.260, 363.920 212.921, 372.230 203.828 C 377.018 198.589, 382.592 194.906, 384.579 195.669 C 385.304 195.947, 386.665 198.498, 387.604 201.337 C 390.813 211.043, 395.809 216.814, 402.383 218.407 C 404.482 218.915, 406.656 218.422, 410.383 216.593 C 415.880 213.895, 440.295 193.279, 441.399 190.403 C 442.396 187.806, 440.469 186.415, 438.204 188.097 C 437.165 188.869, 432.306 192.532, 427.407 196.237 C 418.275 203.144, 409.123 208.531, 404.042 209.988 C 399.586 211.266, 397.472 209.044, 394.899 200.378 C 393.380 195.262, 391.597 191.655, 389.474 189.404 C 386.580 186.336, 386.029 186.131, 382.988 187.003 C 375.991 189.010, 364.870 200.806, 349.253 222.786 C 344.452 229.543, 340.392 234.675, 340.231 234.192 C 339.892 233.176, 346.013 214.339, 355.040 188.620 L 361.315 170.740 359.487 167.347 C 357.787 164.189, 352.536 160, 350.279 160 C 349.737 160, 348.762 163.215, 348.113 167.143 M 955.065 166.187 C 953.390 169.109, 952.015 172.683, 952.009 174.130 C 952.004 175.704, 950.224 179.046, 947.574 182.459 C 942.346 189.191, 914.786 219.824, 913.862 219.928 C 913.214 220.001, 911.893 210.030, 909.711 188.604 C 908.234 174.101, 907.355 173.045, 896.091 172.239 C 888.350 171.685, 887.301 172.534, 890.909 176.436 C 892.373 178.019, 893.086 181.178, 893.969 190 C 895.339 203.674, 897.363 215.905, 899.843 225.500 L 901.653 232.500 886.535 247.500 C 868.242 265.650, 861 275.679, 861 282.861 C 861 288.107, 863.129 292, 865.998 292 C 868.611 292, 869.340 290.451, 870.083 283.318 C 870.907 275.419, 875.077 269.405, 891.965 251.763 L 904.158 239.026 907.326 245.263 C 909.069 248.693, 913.014 254.055, 916.095 257.178 C 920.585 261.730, 922.849 263.191, 927.515 264.547 C 947.121 270.247, 963.004 256.744, 995.476 206.773 C 998.595 201.974, 1000.862 197.586, 1000.514 197.023 C 999.625 195.585, 994.292 195.747, 993.028 197.250 C 992.449 197.938, 988.569 203.900, 984.405 210.500 C 973.707 227.457, 967.013 236.149, 956.583 246.620 C 944.730 258.521, 936.121 262.902, 929.547 260.380 C 925.439 258.803, 919.528 246.804, 916.577 234.051 C 914.825 226.479, 913.540 228.729, 929.169 212 C 945.629 194.380, 958.573 178.572, 961.592 172.402 C 963.912 167.659, 964.036 166.848, 962.828 164.327 C 960.625 159.731, 958.472 160.247, 955.065 166.187 M 657.349 182.056 C 652.118 184.645, 641.734 195.381, 642.187 197.732 C 642.604 199.899, 646.931 201.485, 650.193 200.666 C 656.714 199.030, 666.432 186.174, 664.653 181.538 C 663.867 179.489, 662.312 179.599, 657.349 182.056" stroke="none" fill="#b76e79" fill-rule="evenodd"/>
</svg>