<svg xmlns="http://www.w3.org/2000/svg" width="1024" height="656" viewBox="0 0 1024 656" version="1.1">
	<path d="M 503.245 37.250 C 457.613 83.881, 421.750 141.245, 403.684 196.500 C 393.969 226.212, 389.962 250.910, 389.971 281 C 389.980 306.646, 391.875 320.345, 399.169 347.493 C 406.039 373.061, 422.866 410.808, 438.400 435.500 C 448.098 450.915, 451.388 454.855, 445.498 444 C 423.485 403.430, 410.710 368.945, 403.452 330.500 C 400.240 313.487, 399.020 280.838, 400.885 261.782 C 407.528 193.909, 446.729 116.196, 507.716 50 L 512.784 44.500 518.501 50.500 C 540.492 73.576, 563.532 103.803, 580.242 131.500 C 608.121 177.710, 623.744 221.184, 629.474 268.500 L 630.927 280.500 630.498 264.500 C 628.588 193.424, 591.176 113.596, 525.867 41.250 C 519.289 33.962, 513.544 28, 513.102 28 C 512.659 28, 508.224 32.163, 503.245 37.250 M 253.190 97.158 C 247.365 122.163, 245.878 129.477, 244.070 142 C 238.646 179.570, 238.658 215.605, 244.105 248 C 245.261 254.875, 246.531 260.848, 246.926 261.272 C 247.321 261.697, 248.205 252.022, 248.891 239.772 C 250.910 203.678, 255.134 170.695, 261.992 137.480 C 263.584 129.769, 265.099 122.794, 265.360 121.980 C 265.620 121.166, 266.104 119.263, 266.436 117.750 C 266.767 116.237, 267.649 115, 268.396 115 C 270.737 115, 287.771 120.512, 306.892 127.457 C 332.730 136.842, 360.066 148.617, 383.944 160.646 C 395.188 166.311, 404.564 170.770, 404.779 170.554 C 405.406 169.927, 386.341 154.394, 376.500 147.513 C 355.106 132.554, 328.126 118.097, 303 108.129 C 290.343 103.107, 264.541 94.745, 257.851 93.496 C 254.209 92.817, 254.199 92.825, 253.190 97.158 M 755 96.901 C 714.218 109.250, 676.251 127.513, 646.255 149.208 C 636.054 156.586, 619.798 170.131, 620.409 170.742 C 620.586 170.919, 630.578 166.142, 642.615 160.126 C 677.292 142.796, 713.497 128.040, 746.708 117.702 L 757.915 114.213 758.934 117.356 C 760.671 122.713, 766.980 155.379, 769.556 172.348 C 772.966 194.811, 775.893 224.419, 776.664 244.250 C 777.022 253.463, 777.619 261, 777.990 261 C 778.744 261, 782.549 241.581, 783.495 232.901 C 787.140 199.487, 785.125 159.009, 778.023 123 C 773.932 102.256, 771.170 92.983, 769.104 93.058 C 768.222 93.089, 761.875 94.819, 755 96.901 M 167.500 265.632 C 139.702 267.169, 109.468 271.365, 84.688 277.125 C 77.435 278.811, 70.487 280.426, 69.250 280.712 C 68.013 280.999, 67 281.901, 67 282.716 C 67 287.355, 77.573 321.391, 84.484 339 C 115.313 417.555, 161.491 478.394, 217.500 514.246 C 250.799 535.562, 296.399 550.050, 342.500 553.961 C 367.547 556.086, 406.616 554.988, 432.500 551.432 C 453.558 548.539, 484.727 541.942, 493.500 538.522 L 497.500 536.962 494 537.534 C 379.343 556.272, 289.975 543.595, 224.053 499.240 C 182.227 471.099, 146.185 427.190, 117.075 368.912 C 103.670 342.076, 85.709 295.891, 87.846 293.754 C 89.021 292.579, 112.793 287.445, 128 285.083 C 181.356 276.795, 233.684 277.090, 276 285.916 C 315.485 294.152, 343.876 306.041, 375.888 327.745 C 383.233 332.724, 384.792 333.498, 382.500 331.023 C 380.850 329.241, 375.900 324.966, 371.500 321.522 C 339.258 296.285, 300.837 279.735, 254.500 271.125 C 232.429 267.024, 190.365 264.368, 167.500 265.632 M 820.500 265.574 C 748.841 269.706, 695.907 287.941, 651.281 323.865 C 645.660 328.390, 640.761 332.578, 640.393 333.172 C 639.590 334.473, 639.093 334.779, 654.594 324.409 C 689.400 301.123, 726.488 288.120, 777.500 281.318 C 795.899 278.864, 848.230 278.859, 869.806 281.308 C 891.957 283.822, 908.287 286.652, 935.750 292.735 C 936.987 293.009, 938 293.689, 938 294.247 C 938 296.338, 928.975 322.013, 923.500 335.500 C 902.780 386.534, 875.609 429.841, 843.645 462.778 C 805.879 501.692, 768.519 523.085, 716 535.868 C 689.870 542.228, 668.108 544.876, 635.500 545.663 C 601.930 546.472, 562.306 543.217, 531.170 537.091 C 522.840 535.452, 528.640 537.983, 540.031 540.957 C 611.646 559.656, 688.191 559.794, 747.869 541.332 C 802.424 524.455, 846.607 491.917, 886.147 439.500 C 914.574 401.816, 940.971 346.905, 955.371 295.500 C 959.600 280.405, 960.513 282.016, 945.622 278.296 C 928.546 274.030, 901.277 269.471, 881.353 267.552 C 865.260 266.001, 831.897 264.917, 820.500 265.574 M 628.278 301.804 C 621.216 351.690, 600.048 403.672, 565.485 456 C 553.676 473.879, 534.519 499.150, 523.500 511.385 C 522.400 512.607, 519.402 515.950, 516.837 518.814 L 512.175 524.022 498.669 509.761 C 483.896 494.162, 474.117 482.939, 461.671 467.306 C 457.208 461.699, 453.390 457.276, 453.189 457.478 C 451.991 458.676, 470.991 487.950, 483.206 503.727 C 492.185 515.324, 508.334 534.372, 511.213 536.762 C 512.443 537.782, 514.770 535.875, 525.268 525.242 C 579.586 470.229, 617.680 400.514, 628.399 336.500 C 631.408 318.529, 632.916 292.135, 631.180 287.804 C 630.804 286.867, 629.506 293.127, 628.278 301.804 M 91 396.379 C 69.337 403.984, 46.898 414.048, 26.103 425.484 C 19.447 429.145, 14 432.564, 14 433.081 C 14 434.252, 22.478 447.863, 29.834 458.500 C 64.644 508.842, 106.622 549.417, 152.874 577.430 C 180.707 594.287, 213.471 606.917, 242.400 611.941 C 304.698 622.758, 375.808 609.591, 445 574.425 C 460.361 566.619, 480.377 555.044, 479.696 554.362 C 479.472 554.139, 472.362 556.936, 463.895 560.579 C 418.263 580.212, 376.556 592.164, 334.500 597.659 C 315.115 600.192, 275.349 600.192, 259 597.660 C 205.420 589.360, 156.170 565.010, 106 522.012 C 92.824 510.719, 64.529 481.878, 52.317 467.291 C 41.890 454.837, 28 436.803, 28 435.719 C 28 433.971, 65.902 411.725, 87.305 400.911 C 106.157 391.385, 106.530 390.926, 91 396.379 M 923.083 393.369 C 923.313 393.572, 929.890 396.967, 937.700 400.913 C 961.854 413.118, 997 433.839, 997 435.874 C 997 437.438, 985.437 452.452, 971.103 469.500 C 960.725 481.843, 926.658 515.922, 914.500 526.124 C 866.186 566.661, 817.771 589.893, 765.446 597.647 C 748.652 600.136, 708.635 600.144, 690.500 597.662 C 646.172 591.597, 604.014 579.368, 558.152 559.273 C 551.361 556.297, 545.645 554.022, 545.449 554.217 C 545.254 554.413, 549.686 557.319, 555.297 560.677 C 598.852 586.737, 646.263 604.486, 692.139 611.905 C 750.024 621.265, 801.352 613.749, 852.086 588.484 C 908.296 560.492, 960.328 511.895, 1001.871 448.588 C 1006.892 440.937, 1011 434.103, 1011 433.402 C 1011 431.329, 983.988 416.766, 963.565 407.829 C 945.372 399.868, 920.313 390.917, 923.083 393.369" stroke="none" fill="#b76e79" fill-rule="evenodd"/>
</svg>